<?xml version="1.0" encoding="utf-8"?>
<!-- Generator: Adobe Illustrator 25.2.1, SVG Export Plug-In . SVG Version: 6.00 Build 0)  -->
<svg version="1.1" id="Layer_5" xmlns="http://www.w3.org/2000/svg" xmlns:xlink="http://www.w3.org/1999/xlink" x="0px" y="0px"
	 viewBox="0 0 200 200" style="enable-background:new 0 0 200 200;" xml:space="preserve">
<style type="text/css">
	.st0{fill:#00A3E0;}
	.st1{fill:#EBF6FA;}
	.st2{fill:#FFFFFF;}
	.st3{fill:#10A1DC;}
	.st4{fill:#D0E7F7;}
	.st5{fill:#D1E8F7;}
	.st6{fill:#0FA1DB;}
	.st7{fill:#CFE7F7;}
	.st8{fill-rule:evenodd;clip-rule:evenodd;fill:#00A3E0;stroke:#D0E7F7;stroke-width:2;stroke-miterlimit:10;}
	.st9{fill-rule:evenodd;clip-rule:evenodd;fill:#00A3E0;stroke:#00A3E0;stroke-width:2;stroke-miterlimit:10;}
	.st10{fill-rule:evenodd;clip-rule:evenodd;fill:#D0E7F7;}
	.st11{fill:none;}
	.st12{fill:#CFE7F7;stroke:#10A1DC;stroke-width:2.16;stroke-miterlimit:10;}
	.st13{fill:#B9D9EB;}
	.st14{fill:#C6E1F5;}
	.st15{fill:#CEE6F6;}
	.st16{fill:#CFE6F4;}
	.st17{fill:#2DA2D8;}
	.st18{clip-path:url(#SVGID_2_);}
	.st19{clip-path:url(#SVGID_4_);}
	.st20{fill:#CFE6F2;}
	.st21{clip-path:url(#SVGID_6_);}
	.st22{clip-path:url(#SVGID_8_);}
	.st23{fill:#19A0DB;}
	.st24{fill:#00A3E0;stroke:#1AA1DC;stroke-miterlimit:10;}
	.st25{fill:#00A3E0;stroke:#14A2DC;stroke-miterlimit:10;}
	.st26{fill:#CFE5F1;}
	.st27{fill:none;stroke:#00A3E0;stroke-width:2;stroke-linecap:round;stroke-linejoin:round;stroke-miterlimit:10;}
	.st28{fill:none;stroke:#10A1DC;stroke-width:3;stroke-miterlimit:10;stroke-dasharray:9.1453,9.1453;}
	.st29{fill:#CFE7F1;}
	.st30{fill:#744424;}
	.st31{fill:#2A190A;}
	.st32{fill:#DDDDDD;}
	.st33{fill:#93934E;}
	.st34{fill:#7A7940;}
	.st35{fill:#9A5A30;}
	.st36{fill:#CC6633;}
	.st37{fill:#56442E;}
	.st38{fill:#473926;}
	.st39{fill:#B2043A;}
	.st40{fill:#990A3D;}
	.st41{fill:#D6855C;}
	.st42{fill:#FFB699;}
	.st43{fill:#684513;}
	.st44{fill:#51340E;}
	.st45{fill:#3F8927;}
	.st46{fill:#438E2B;}
	.st47{fill:#479E2E;}
	.st48{fill:#FFCAB3;}
	.st49{fill:none;stroke:#00A3E0;stroke-width:4.5;stroke-linecap:round;stroke-linejoin:round;stroke-miterlimit:10;}
	.st50{fill:#229FD9;}
	.st51{clip-path:url(#SVGID_10_);}
	.st52{opacity:0.59;}
	.st53{fill:#2EA2D6;}
	.st54{clip-path:url(#SVGID_12_);fill:#CFE6F2;}
	.st55{clip-path:url(#SVGID_14_);}
	.st56{clip-path:url(#SVGID_16_);fill:#CFE6F2;}
	.st57{clip-path:url(#SVGID_18_);fill:#CFE6F2;}
	.st58{clip-path:url(#SVGID_20_);fill:#CFE6F2;}
	.st59{clip-path:url(#SVGID_22_);fill:#FFFFFF;}
	.st60{clip-path:url(#SVGID_24_);fill:#FFFFFF;}
	.st61{clip-path:url(#SVGID_10_);fill:#CFE6F2;}
	.st62{clip-path:url(#SVGID_10_);fill:#FFFFFF;}
	.st63{fill:#CEE6F7;}
	.st64{fill:#16A1DC;}
	.st65{fill:none;stroke:#3E3E44;stroke-width:2;stroke-linecap:round;stroke-miterlimit:10;}
	.st66{fill:#10A1DC;stroke:#10A1DC;stroke-width:2;stroke-miterlimit:10;}
	.st67{clip-path:url(#SVGID_26_);}
	.st68{fill:#CFE7F1;stroke:#10A1DC;stroke-miterlimit:10;}
	.st69{fill:#10A1DC;stroke:#10A1DC;stroke-miterlimit:10;}
	.st70{clip-path:url(#SVGID_28_);fill:#10A1DC;}
	.st71{clip-path:url(#SVGID_30_);fill:#10A1DC;}
	.st72{fill:none;stroke:#10A1DC;stroke-linecap:round;stroke-miterlimit:10;}
	.st73{fill-rule:evenodd;clip-rule:evenodd;fill:#CFE7F7;}
	.st74{fill-rule:evenodd;clip-rule:evenodd;fill:#10A1DC;stroke:#10A1DC;stroke-miterlimit:10;}
	.st75{fill-rule:evenodd;clip-rule:evenodd;fill:#FFFFFF;}
</style>
<path class="st4" d="M138.6,105.5c0,20.9-17,37.9-37.9,37.9c-20.9,0-37.9-17-37.9-37.9c0-20.9,17-37.9,37.9-37.9
	C121.6,67.6,138.6,84.6,138.6,105.5"/>
<g>
	<path class="st0" d="M143.3,92.9H57.2c-3.8,0-7.6-1.2-10.6-3.5L42,86.1c-3.5-2.5-4.7-7.2-2.9-11.2l9.9-21.3
		c0.1-0.1,0.1-0.3,0.2-0.4c5-7.7,11.8-8.3,19.6-8.3h62.7c7.8,0,14.6,0.6,19.6,8.3c0.1,0.1,0.2,0.3,0.2,0.4l9.9,21.3
		c1.8,3.9,0.6,8.6-2.9,11.2l-4.5,3.3C150.9,91.6,147.1,92.9,143.3,92.9z M54.8,56.5L45,77.6c-0.5,1.1-0.2,2.5,0.8,3.3l4.6,3.3
		c2,1.4,4.4,2.2,6.8,2.2h86.1c2.4,0,4.8-0.8,6.8-2.2l4.5-3.3c1-0.7,1.4-2.1,0.8-3.3l-9.8-21.1c-3-4.5-6.7-5.2-14.1-5.2H68.9
		C61.5,51.3,57.8,52,54.8,56.5z"/>
	<path class="st0" d="M32.5,90.4h-16c-2.2,0-4.2-1-5.5-2.7c-1.3-1.7-1.7-3.9-1.1-6l1.2-4.1c1.2-4.1,5-6.9,9.2-6.9H30
		c1.8,0,3.2,1.4,3.2,3.2S31.8,77,30,77h-9.6c-1.4,0-2.7,1-3.1,2.3l-1.2,4.1c0,0.1,0,0.3,0.1,0.4c0.1,0.1,0.2,0.2,0.3,0.2h16
		c1.8,0,3.2,1.4,3.2,3.2S34.3,90.4,32.5,90.4z"/>
	<path class="st0" d="M183.5,90.4h-16c-1.8,0-3.2-1.4-3.2-3.2s1.4-3.2,3.2-3.2h16c0.1,0,0.2-0.1,0.3-0.2c0.1-0.1,0.1-0.2,0.1-0.4
		l-1.2-4.1c-0.4-1.4-1.7-2.3-3.1-2.3H170c-1.8,0-3.2-1.4-3.2-3.2s1.4-3.2,3.2-3.2h9.6c4.3,0,8.1,2.9,9.2,6.9l1.2,4.1
		c0.6,2.1,0.2,4.3-1.1,6C187.7,89.4,185.7,90.4,183.5,90.4z"/>
	<path class="st0" d="M122.7,126.5H77.3c-1.8,0-3.2-1.4-3.2-3.2s1.4-3.2,3.2-3.2h45.4c1.8,0,3.2,1.4,3.2,3.2
		S124.5,126.5,122.7,126.5z"/>
	<path class="st0" d="M122.7,114.7H77.3c-1.8,0-3.2-1.4-3.2-3.2c0-1.8,1.4-3.2,3.2-3.2h45.4c1.8,0,3.2,1.4,3.2,3.2
		C125.9,113.2,124.5,114.7,122.7,114.7z"/>
	<path class="st0" d="M59.5,114.7H44.9c-0.7,0-1.4-0.2-2-0.7l-7.2-5.6c-1.4-1.1-1.7-3.1-0.6-4.5c1.1-1.4,3.1-1.7,4.5-0.6l6.4,5h13.5
		c1.8,0,3.2,1.4,3.2,3.2C62.7,113.2,61.2,114.7,59.5,114.7z"/>
	<path class="st0" d="M59.5,126.5H44.3c-1.8,0-3.2-1.4-3.2-3.2s1.4-3.2,3.2-3.2h15.2c1.8,0,3.2,1.4,3.2,3.2S61.2,126.5,59.5,126.5z"
		/>
	<path class="st0" d="M155.6,114.7H141c-1.8,0-3.2-1.4-3.2-3.2c0-1.8,1.4-3.2,3.2-3.2h13.5l6.4-5c1.4-1.1,3.4-0.8,4.5,0.6
		c1.1,1.4,0.8,3.4-0.6,4.5l-7.2,5.6C157,114.4,156.4,114.7,155.6,114.7z"/>
	<path class="st0" d="M156.2,126.5H141c-1.8,0-3.2-1.4-3.2-3.2s1.4-3.2,3.2-3.2h15.2c1.8,0,3.2,1.4,3.2,3.2S158,126.5,156.2,126.5z"
		/>
	<path class="st0" d="M170,144.6H30c-6.2,0-12.8-6.6-12.8-12.8v-18.3c0-6,2.2-14.7,6.4-19.1l7.3-9.2c1.1-1.4,3.1-1.6,4.5-0.5
		c1.4,1.1,1.6,3.1,0.5,4.5l-7.4,9.3c-0.1,0.1-0.1,0.2-0.2,0.2c-2.8,2.8-4.7,10-4.7,14.7v18.3c0,2.6,3.8,6.4,6.4,6.4h140
		c2.6,0,6.4-3.8,6.4-6.4v-18.3c0-4.7-1.9-11.9-4.7-14.7c-0.1-0.1-0.1-0.2-0.2-0.2l-7.4-9.3c-1.1-1.4-0.9-3.4,0.5-4.5
		c1.4-1.1,3.4-0.9,4.5,0.5l7.3,9.2c4.1,4.4,6.4,13.1,6.4,19.1v18.3C182.8,138,176.2,144.6,170,144.6z"/>
	<path class="st0" d="M170,144.6h-5.2v7.9h-17v-7.9h-6.4v8.1c0,3.5,2.8,6.3,6.3,6.3h17.3c3.5,0,6.3-2.8,6.3-6.3v-8.2
		C170.8,144.6,170.4,144.6,170,144.6z"/>
	<path class="st0" d="M52.8,152.5h-17v-7.9H30c-0.2,0-0.4,0-0.6,0v8.1c0,3.5,2.8,6.3,6.3,6.3h17.3c3.5,0,6.3-2.8,6.3-6.3v-8.1h-6.4
		V152.5z"/>
</g>
</svg>
