<?xml version="1.0" encoding="utf-8"?>
<!-- Generator: Adobe Illustrator 25.2.1, SVG Export Plug-In . SVG Version: 6.00 Build 0)  -->
<svg version="1.1" id="Layer_5" xmlns="http://www.w3.org/2000/svg" xmlns:xlink="http://www.w3.org/1999/xlink" x="0px" y="0px"
	 viewBox="0 0 200 200" style="enable-background:new 0 0 200 200;" xml:space="preserve">
<style type="text/css">
	.st0{fill:#00A3E0;}
	.st1{fill:#EBF6FA;}
	.st2{fill:#FFFFFF;}
	.st3{fill:#10A1DC;}
	.st4{fill:#D0E7F7;}
	.st5{fill:#D1E8F7;}
	.st6{fill:#0FA1DB;}
	.st7{fill:#CFE7F7;}
	.st8{fill-rule:evenodd;clip-rule:evenodd;fill:#00A3E0;stroke:#D0E7F7;stroke-width:2;stroke-miterlimit:10;}
	.st9{fill-rule:evenodd;clip-rule:evenodd;fill:#00A3E0;stroke:#00A3E0;stroke-width:2;stroke-miterlimit:10;}
	.st10{fill-rule:evenodd;clip-rule:evenodd;fill:#D0E7F7;}
	.st11{fill:none;}
	.st12{fill:#CFE7F7;stroke:#10A1DC;stroke-width:2.16;stroke-miterlimit:10;}
	.st13{fill:#B9D9EB;}
	.st14{fill:#C6E1F5;}
	.st15{fill:#CEE6F6;}
	.st16{fill:#CFE6F4;}
	.st17{fill:#2DA2D8;}
	.st18{clip-path:url(#SVGID_2_);}
	.st19{clip-path:url(#SVGID_4_);}
	.st20{fill:#CFE6F2;}
	.st21{clip-path:url(#SVGID_6_);}
	.st22{clip-path:url(#SVGID_8_);}
	.st23{fill:#19A0DB;}
	.st24{fill:#00A3E0;stroke:#1AA1DC;stroke-miterlimit:10;}
	.st25{fill:#00A3E0;stroke:#14A2DC;stroke-miterlimit:10;}
	.st26{fill:#CFE5F1;}
	.st27{fill:none;stroke:#00A3E0;stroke-width:2;stroke-linecap:round;stroke-linejoin:round;stroke-miterlimit:10;}
	.st28{fill:none;stroke:#10A1DC;stroke-width:3;stroke-miterlimit:10;stroke-dasharray:9.1453,9.1453;}
	.st29{fill:#CFE7F1;}
	.st30{fill:#744424;}
	.st31{fill:#2A190A;}
	.st32{fill:#DDDDDD;}
	.st33{fill:#93934E;}
	.st34{fill:#7A7940;}
	.st35{fill:#9A5A30;}
	.st36{fill:#CC6633;}
	.st37{fill:#56442E;}
	.st38{fill:#473926;}
	.st39{fill:#B2043A;}
	.st40{fill:#990A3D;}
	.st41{fill:#D6855C;}
	.st42{fill:#FFB699;}
	.st43{fill:#684513;}
	.st44{fill:#51340E;}
	.st45{fill:#3F8927;}
	.st46{fill:#438E2B;}
	.st47{fill:#479E2E;}
	.st48{fill:#FFCAB3;}
	.st49{fill:none;stroke:#00A3E0;stroke-width:4.5;stroke-linecap:round;stroke-linejoin:round;stroke-miterlimit:10;}
	.st50{fill:#229FD9;}
	.st51{clip-path:url(#SVGID_10_);}
	.st52{opacity:0.59;}
	.st53{fill:#2EA2D6;}
	.st54{clip-path:url(#SVGID_12_);fill:#CFE6F2;}
	.st55{clip-path:url(#SVGID_14_);}
	.st56{clip-path:url(#SVGID_16_);fill:#CFE6F2;}
	.st57{clip-path:url(#SVGID_18_);fill:#CFE6F2;}
	.st58{clip-path:url(#SVGID_20_);fill:#CFE6F2;}
	.st59{clip-path:url(#SVGID_22_);fill:#FFFFFF;}
	.st60{clip-path:url(#SVGID_24_);fill:#FFFFFF;}
	.st61{clip-path:url(#SVGID_10_);fill:#CFE6F2;}
	.st62{clip-path:url(#SVGID_10_);fill:#FFFFFF;}
	.st63{fill:#CEE6F7;}
	.st64{fill:#16A1DC;}
	.st65{fill:none;stroke:#3E3E44;stroke-width:2;stroke-linecap:round;stroke-miterlimit:10;}
	.st66{fill:#10A1DC;stroke:#10A1DC;stroke-width:2;stroke-miterlimit:10;}
	.st67{clip-path:url(#SVGID_26_);}
	.st68{fill:#CFE7F1;stroke:#10A1DC;stroke-miterlimit:10;}
	.st69{fill:#10A1DC;stroke:#10A1DC;stroke-miterlimit:10;}
	.st70{clip-path:url(#SVGID_28_);fill:#10A1DC;}
	.st71{clip-path:url(#SVGID_30_);fill:#10A1DC;}
	.st72{fill:none;stroke:#10A1DC;stroke-linecap:round;stroke-miterlimit:10;}
	.st73{fill-rule:evenodd;clip-rule:evenodd;fill:#CFE7F7;}
	.st74{fill-rule:evenodd;clip-rule:evenodd;fill:#10A1DC;stroke:#10A1DC;stroke-miterlimit:10;}
	.st75{fill-rule:evenodd;clip-rule:evenodd;fill:#FFFFFF;}
</style>
<path class="st3" d="M39.3,82.7C39.3,75.5,44.8,70,52,70h51.5L158,56.5l-4.7-19.1l-138.3,34l4.7,19.1l19.5-4.8V82.7z"/>
<path class="st3" d="M39.3,151.3c-1.4-0.7-2.5-1.9-2.9-3.6L15.5,62.8c-0.7-3,1-5.8,4-6.5l123-30.2c3-0.7,5.8,1,6.5,4l9.8,40h5.1
	l-10.1-41.2c-1.4-5.6-6.9-8.9-12.5-7.6l-123,30.2c-5.6,1.4-8.9,6.9-7.5,12.5l20.9,84.9c1,4,4,6.8,7.7,7.6V151.3z"/>
<g>
	<path class="st2" d="M178.5,176.5H56.7c-5.6,0-9.9-4.3-9.9-9.9V86.3c0-5.5,4.4-9.9,9.9-9.9h121.7c5.6,0,9.9,4.3,9.9,9.9v80.4
		C188.4,172.2,184,176.5,178.5,176.5z"/>
	<path class="st2" d="M178.5,178.8H56.7c-6.8,0-12.2-5.3-12.2-12.1V86.3c0-6.8,5.4-12.1,12.2-12.1h121.7c6.8,0,12.2,5.3,12.2,12.1
		v80.4C190.7,173.5,185.3,178.8,178.5,178.8z M56.7,78.7c-4.3,0-7.6,3.3-7.6,7.6v80.4c0,4.3,3.4,7.6,7.6,7.6h121.7
		c4.3,0,7.6-3.3,7.6-7.6V86.3c0-4.3-3.4-7.6-7.6-7.6H56.7z"/>
</g>
<path class="st3" d="M45.9,96.2c1.4,0,2.5,1.1,2.5,2.5c0,1.4-1.1-0.8-2.5-0.8s-2.5,2.2-2.5,0.8C43.4,97.3,44.5,96.2,45.9,96.2z"/>
<g>
	<path class="st3" d="M180.4,178.9H53.8c-5.8,0-10.3-4.5-10.3-10.3V84.4c0-5.8,4.5-10.3,10.3-10.3h126.7c5.8,0,10.3,4.5,10.3,10.3
		v84.1C190.8,174.3,186.2,178.9,180.4,178.9z M53.8,79c-3.1,0-5.4,2.3-5.4,5.4v84.1c0,3.1,2.3,5.4,5.4,5.4h126.7
		c3.1,0,5.4-2.3,5.4-5.4V84.4c0-3.1-2.3-5.4-5.4-5.4H53.8z"/>
</g>
<path class="st3" d="M138.9,163.3H59.5c-1.4,0-2.5-1.1-2.5-2.5s1.1-2.5,2.5-2.5h79.4c1.4,0,2.5,1.1,2.5,2.5S140.3,163.3,138.9,163.3
	z"/>
<path class="st3" d="M109.3,94.7H59.5c-1.4,0-2.5-1.1-2.5-2.5s1.1-2.5,2.5-2.5h49.8c1.4,0,2.5,1.1,2.5,2.5S110.6,94.7,109.3,94.7z"
	/>
<path class="st3" d="M79.6,144.8H59.5c-1.4,0-2.5-1.1-2.5-2.5s1.1-2.5,2.5-2.5h20.1c1.4,0,2.5,1.1,2.5,2.5S81,144.8,79.6,144.8z"/>
<path class="st3" d="M111.2,144.8H91.1c-1.4,0-2.5-1.1-2.5-2.5s1.1-2.5,2.5-2.5h20.1c1.4,0,2.5,1.1,2.5,2.5S112.6,144.8,111.2,144.8
	z"/>
<path class="st3" d="M142.2,144.8h-20.1c-1.4,0-2.5-1.1-2.5-2.5s1.1-2.5,2.5-2.5h20.1c1.4,0,2.5,1.1,2.5,2.5
	S143.6,144.8,142.2,144.8z"/>
<path class="st3" d="M173.2,144.8h-20.1c-1.4,0-2.5-1.1-2.5-2.5s1.1-2.5,2.5-2.5h20.1c1.4,0,2.5,1.1,2.5,2.5
	S174.6,144.8,173.2,144.8z"/>
<path class="st3" d="M176.4,163.3h-12.9c-1.4,0-2.5-1.1-2.5-2.5s1.1-2.5,2.5-2.5h12.9c1.4,0,2.5,1.1,2.5,2.5
	S177.7,163.3,176.4,163.3z"/>
<path class="st3" d="M77.3,130.5H60.8c-2.1,0-3.8-1.7-3.8-3.8v-13.9c0-2.1,1.7-3.8,3.8-3.8h16.4c2.1,0,3.8,1.7,3.8,3.8v13.9
	C81.1,128.8,79.4,130.5,77.3,130.5z"/>
</svg>
