<?xml version="1.0" encoding="utf-8"?>
<!-- Generator: Adobe Illustrator 25.2.1, SVG Export Plug-In . SVG Version: 6.00 Build 0)  -->
<svg version="1.1" id="Layer_5" xmlns="http://www.w3.org/2000/svg" xmlns:xlink="http://www.w3.org/1999/xlink" x="0px" y="0px"
	 viewBox="0 0 200 200" style="enable-background:new 0 0 200 200;" xml:space="preserve">
<style type="text/css">
	.st0{fill:#00A3E0;}
	.st1{fill:#EBF6FA;}
	.st2{fill:#FFFFFF;}
	.st3{fill:#10A1DC;}
	.st4{fill:#D0E7F7;}
	.st5{fill:#D1E8F7;}
	.st6{fill:#0FA1DB;}
	.st7{fill:#CFE7F7;}
	.st8{fill-rule:evenodd;clip-rule:evenodd;fill:#00A3E0;stroke:#D0E7F7;stroke-width:2;stroke-miterlimit:10;}
	.st9{fill-rule:evenodd;clip-rule:evenodd;fill:#00A3E0;stroke:#00A3E0;stroke-width:2;stroke-miterlimit:10;}
	.st10{fill-rule:evenodd;clip-rule:evenodd;fill:#D0E7F7;}
	.st11{fill:none;}
	.st12{fill:#CFE7F7;stroke:#10A1DC;stroke-width:2.16;stroke-miterlimit:10;}
	.st13{fill:#B9D9EB;}
	.st14{fill:#C6E1F5;}
	.st15{fill:#CEE6F6;}
	.st16{fill:#CFE6F4;}
	.st17{fill:#2DA2D8;}
	.st18{clip-path:url(#SVGID_2_);}
	.st19{clip-path:url(#SVGID_4_);}
	.st20{fill:#CFE6F2;}
	.st21{clip-path:url(#SVGID_6_);}
	.st22{clip-path:url(#SVGID_8_);}
	.st23{fill:#19A0DB;}
	.st24{fill:#00A3E0;stroke:#1AA1DC;stroke-miterlimit:10;}
	.st25{fill:#00A3E0;stroke:#14A2DC;stroke-miterlimit:10;}
	.st26{fill:#CFE5F1;}
	.st27{fill:none;stroke:#00A3E0;stroke-width:2;stroke-linecap:round;stroke-linejoin:round;stroke-miterlimit:10;}
	.st28{fill:none;stroke:#10A1DC;stroke-width:3;stroke-miterlimit:10;stroke-dasharray:9.1453,9.1453;}
	.st29{fill:#CFE7F1;}
	.st30{fill:#744424;}
	.st31{fill:#2A190A;}
	.st32{fill:#DDDDDD;}
	.st33{fill:#93934E;}
	.st34{fill:#7A7940;}
	.st35{fill:#9A5A30;}
	.st36{fill:#CC6633;}
	.st37{fill:#56442E;}
	.st38{fill:#473926;}
	.st39{fill:#B2043A;}
	.st40{fill:#990A3D;}
	.st41{fill:#D6855C;}
	.st42{fill:#FFB699;}
	.st43{fill:#684513;}
	.st44{fill:#51340E;}
	.st45{fill:#3F8927;}
	.st46{fill:#438E2B;}
	.st47{fill:#479E2E;}
	.st48{fill:#FFCAB3;}
	.st49{fill:none;stroke:#00A3E0;stroke-width:4.5;stroke-linecap:round;stroke-linejoin:round;stroke-miterlimit:10;}
	.st50{fill:#229FD9;}
	.st51{clip-path:url(#SVGID_10_);}
	.st52{opacity:0.59;}
	.st53{fill:#2EA2D6;}
	.st54{clip-path:url(#SVGID_12_);fill:#CFE6F2;}
	.st55{clip-path:url(#SVGID_14_);}
	.st56{clip-path:url(#SVGID_16_);fill:#CFE6F2;}
	.st57{clip-path:url(#SVGID_18_);fill:#CFE6F2;}
	.st58{clip-path:url(#SVGID_20_);fill:#CFE6F2;}
	.st59{clip-path:url(#SVGID_22_);fill:#FFFFFF;}
	.st60{clip-path:url(#SVGID_24_);fill:#FFFFFF;}
	.st61{clip-path:url(#SVGID_10_);fill:#CFE6F2;}
	.st62{clip-path:url(#SVGID_10_);fill:#FFFFFF;}
	.st63{fill:#CEE6F7;}
	.st64{fill:#16A1DC;}
	.st65{fill:none;stroke:#3E3E44;stroke-width:2;stroke-linecap:round;stroke-miterlimit:10;}
	.st66{fill:#10A1DC;stroke:#10A1DC;stroke-width:2;stroke-miterlimit:10;}
	.st67{clip-path:url(#SVGID_26_);}
	.st68{fill:#CFE7F1;stroke:#10A1DC;stroke-miterlimit:10;}
	.st69{fill:#10A1DC;stroke:#10A1DC;stroke-miterlimit:10;}
	.st70{clip-path:url(#SVGID_28_);fill:#10A1DC;}
	.st71{clip-path:url(#SVGID_30_);fill:#10A1DC;}
	.st72{fill:none;stroke:#10A1DC;stroke-linecap:round;stroke-miterlimit:10;}
	.st73{fill-rule:evenodd;clip-rule:evenodd;fill:#CFE7F7;}
	.st74{fill-rule:evenodd;clip-rule:evenodd;fill:#10A1DC;stroke:#10A1DC;stroke-miterlimit:10;}
	.st75{fill-rule:evenodd;clip-rule:evenodd;fill:#FFFFFF;}
</style>
<g>
	<g>
		<path class="st5" d="M108.4,144.4c0.1,12.7-33.6,12.7-33.5,0C74.9,131.7,108.5,131.7,108.4,144.4"/>
		<path class="st5" d="M119.9,104.1c-67-3.1-64.1,15.1-63.2-38.8c0-4.6,3.7-8.3,8.3-8.3c67,3.1,64.1-15.1,63.2,38.8
			C128.2,100.4,124.5,104.1,119.9,104.1"/>
		<path class="st6" d="M92.7,172.4c-2.1,0-2.1-3.3,0-3.3C94.8,169.1,94.8,172.4,92.7,172.4"/>
		<path class="st0" d="M92.7,172.4V172c-1.7,0-1.6-2.6,0-2.5c1.6,0,1.7,2.6,0,2.5c0,0.2,0,0.5,0,0.7c2.6,0,2.6-4,0-4
			c-2.6,0-2.6,4,0,4V172.4z"/>
		<path class="st6" d="M92.7,170.6l-0.1,0.1c0,0.1,0.2,0.1,0.2,0L92.7,170.6z M92.7,174.1c-4.4,0.1-4.4-6.8,0-6.7
			C97,167.3,97.1,174.2,92.7,174.1"/>
		<path class="st0" d="M92.7,170.6l-0.3-0.3c-0.1,0.1-0.2,0.2-0.2,0.2c-0.1,0.8,1.1,0.8,0.9,0c-0.1-0.1-0.4-0.4-0.5-0.5l-0.3,0.3
			L92.7,170.6l-0.3,0.2l0.1,0.1l0.3-0.2h-0.4h0.3l-0.2-0.2c-0.1,0-0.1,0.1-0.1,0.2h0.3l-0.2-0.2L92.7,170.6v-0.2l-0.1,0L92.7,170.6
			v-0.2V170.6l0.1-0.1l-0.1,0V170.6l0.1-0.1l-0.2,0.2h0.3c0-0.1-0.1-0.2-0.1-0.2l-0.2,0.2h0.3h-0.4l0.3,0.2l0.1-0.1L92.7,170.6
			l-0.3,0.2L92.7,170.6z M92.7,174.1v-0.4c-3.9,0.1-3.9-6.1,0-6c3.9-0.1,3.9,6.1,0,6c0,0.2,0,0.5,0,0.7c4.8,0.1,4.8-7.5,0-7.5
			c-4.8-0.1-4.8,7.5,0,7.5V174.1z"/>
	</g>
	<path class="st6" d="M103.5,185.6H81.9c0.8-5.1-3.3-9.1-8.4-8.4v-17.8H77v14.5c4.2,0.7,7.5,4,8.2,8.2h15c0.7-4.2,4-7.5,8.2-8.2
		v-14.5h3.5v17.8C106.8,176.5,102.7,180.6,103.5,185.6z"/>
	<path class="st0" d="M103.5,185.6v-0.4H82.2c0.7-4.9-3.4-9-8.4-8.4v-17.1h2.8v14.4c4.2,0.6,7.7,4,8.3,8.3h15.6
		c0.6-4.3,4-7.7,8.3-8.3v-14.4h2.8v17.1c-5.2-0.7-9.1,3.7-8.4,8.7H103.5v-0.4V185.6h0.4c-0.8-5.1,3.4-8.8,8.4-8v-18.5H108v14.8h0.4
		l-0.1-0.4c-4.3,0.8-7.7,4.2-8.5,8.5l0.4,0.1v-0.4h-15v0.4l0.4-0.1c-0.8-4.3-4.2-7.7-8.5-8.5l-0.1,0.4h0.4v-14.8h-4.2v18.5
		c5.3-0.8,9.1,3,8.4,8.4h22.4v-0.4H103.5z"/>
	<path class="st6" d="M92.7,134.7c-18.7,0.1-18.7,19.4,0,19.5C111.4,154.1,111.4,134.8,92.7,134.7 M92.7,157.7
		c-23.3-0.1-23.3-26.4,0-26.5C116,131.3,116,157.5,92.7,157.7"/>
	<path class="st0" d="M92.7,134.7v-0.4c-19.1-0.1-19.1,20.3,0,20.2c19.1,0.1,19.1-20.3,0-20.2c0,0.2,0,0.5,0,0.7
		c18.1-0.1,18.1,18.9,0,18.8c-18.2,0.1-18.2-18.9,0-18.8V134.7z M92.7,157.7v-0.4c-22.7,0-22.7-25.8,0-25.8c22.7,0,22.7,25.8,0,25.8
		c0,0.2,0,0.5,0,0.7c23.7,0,23.7-27.2,0-27.2c-23.7,0-23.7,27.2,0,27.2V157.7z"/>
	<path class="st6" d="M132.1,134.6H53.2c-1,0-1.7-0.8-1.7-1.7c0-1,0.8-1.7,1.7-1.7h78.9C134.4,131,134.4,134.6,132.1,134.6"/>
	<path class="st0" d="M132.1,134.6v-0.4H53.2c-0.8,0-1.4-0.6-1.4-1.4s0.6-1.4,1.4-1.4h78.9c1.8,0,1.8,2.8,0,2.8c0,0.2,0,0.5,0,0.7
		c2.7,0,2.7-4.2,0-4.2c0,0-78.9,0-78.9,0c-1.2,0-2.1,0.9-2.1,2.1s0.9,2.1,2.1,2.1h78.9V134.6z"/>
	<rect x="144.4" y="80" class="st6" width="2" height="2"/>
	<path class="st0" d="M146.3,81.9v-0.4V81.9h0.4H146.3z M144.7,80.3h1.2v1.2h-1.2V80.3z M144,79.6v2.7h2.7c0-0.2,0-2.5,0-2.7H144z"
		/>
	<rect x="142.6" y="78.2" class="st6" width="5.5" height="5.5"/>
	<polygon class="st0" points="148.1,83.7 148.1,83.3 143,83.3 143,78.6 147.7,78.6 147.7,83.7 148.1,83.7 148.1,83.3 148.1,83.7 
		148.4,83.7 148.4,77.9 142.3,77.9 142.3,84 148.4,84 148.4,83.7 	"/>
	<rect x="144.4" y="95.8" class="st6" width="2" height="2"/>
	<path class="st0" d="M146.3,97.7v-0.4V97.7h0.4H146.3z M144.7,96.1h1.2v1.2h-1.2V96.1z M144,95.4v2.7h2.7c0-0.2,0-2.5,0-2.7H144z"
		/>
	<rect x="142.6" y="94" class="st6" width="5.5" height="5.5"/>
	<polygon class="st0" points="148.1,99.5 148.1,99.1 143,99.1 143,94.4 147.7,94.4 147.7,99.5 148.1,99.5 148.1,99.1 148.1,99.5 
		148.4,99.5 148.4,93.7 142.3,93.7 142.3,99.8 148.4,99.8 148.4,99.5 	"/>
	<polygon class="st0" points="42.7,67.9 42.7,67.5 37.6,67.5 37.6,62.8 42.4,62.8 42.4,67.9 42.7,67.9 42.7,67.5 42.7,67.9 
		43.1,67.9 43.1,62 36.9,62 36.9,68.2 43.1,68.2 43.1,67.9 	"/>
	<rect x="39" y="80" class="st6" width="2" height="2"/>
	<path class="st0" d="M41,81.9v-0.4V81.9h0.4H41z M39.4,80.3h1.2v1.2h-1.2V80.3z M38.7,79.6v2.7h2.7c0-0.2,0-2.5,0-2.7H38.7z"/>
	<rect x="37.3" y="78.2" class="st6" width="5.5" height="5.5"/>
	<polygon class="st0" points="42.7,83.7 42.7,83.3 37.6,83.3 37.6,78.6 42.4,78.6 42.4,83.7 42.7,83.7 42.7,83.3 42.7,83.7 
		43.1,83.7 43.1,77.9 36.9,77.9 36.9,84 43.1,84 43.1,83.7 	"/>
	<rect x="39" y="95.8" class="st6" width="2" height="2"/>
	<path class="st0" d="M41,97.7v-0.4V97.7h0.4H41z M39.4,96.1h1.2v1.2h-1.2V96.1z M38.7,95.4v2.7h2.7c0-0.2,0-2.5,0-2.7H38.7z"/>
	<rect x="37.3" y="94" class="st6" width="5.5" height="5.5"/>
	<polygon class="st0" points="42.7,99.5 42.7,99.1 37.6,99.1 37.6,94.4 42.4,94.4 42.4,99.5 42.7,99.5 42.7,99.1 42.7,99.5 
		43.1,99.5 43.1,93.7 36.9,93.7 36.9,99.8 43.1,99.8 43.1,99.5 	"/>
	<g>
		<path class="st0" d="M119.4,134.7v58.1H65.8v-58.1H119.4z M61.7,132.7v52v4.1v6.2c0,1.1,0.9,2.1,2.1,2.1h57.7
			c1.1,0,2.1-0.9,2.1-2.1v-62.3H61.7z"/>
	</g>
	<g>
		<path class="st0" d="M54.1,162.7H41.3c-10,0-18.1-8.1-18.1-18.1l0-88.8c0-10,8.1-18.1,18.1-18.1l103.6,0c4.8,0,9.3,1.9,12.8,5.3
			c3.4,3.4,5.3,8,5.3,12.8l0,88.8c0,10-8.1,18.1-18.1,18.1l-13.1,0v-4.1l13.1,0c7.7,0,13.9-6.3,13.9-13.9l0-88.8
			c0-3.7-1.5-7.2-4.1-9.8c-2.6-2.6-6.1-4.1-9.8-4.1l-103.6,0c-7.7,0-13.9,6.3-13.9,13.9l0,88.8c0,7.7,6.3,13.9,13.9,13.9h12.7V162.7
			z"/>
		<path class="st0" d="M137.3,146.4h-5.4v-4.1h5.4c2.3,0,4.1-1.9,4.1-4.1v-10.2c0-2.3-1.9-4.1-4.1-4.1H49c-2.3,0-4.1,1.9-4.1,4.1
			v10.2c0,2.3,1.9,4.1,4.1,4.1h5.1v4.1H49c-4.6,0-8.3-3.7-8.3-8.3v-10.2c0-4.6,3.7-8.3,8.3-8.3h88.3c4.6,0,8.3,3.7,8.3,8.3v10.2
			C145.6,142.7,141.9,146.4,137.3,146.4z"/>
	</g>
	<path class="st0" d="M66.7,105.2c-5.9,0-10.7-4.8-10.7-10.7l0-28.3c0-5.9,4.8-10.7,10.7-10.7l51.9,0c2.9,0,5.5,1.1,7.6,3.1
		c2,2,3.1,4.7,3.1,7.6l0,28.3c0,5.9-4.8,10.7-10.7,10.7L66.7,105.2z M72.9,59.9l-6.2,0c-3.5,0-6.3,2.8-6.3,6.3l0,28.3
		c0,3.5,2.8,6.3,6.3,6.3l51.9,0c3.5,0,6.3-2.8,6.3-6.3l0-28.3c0-1.7-0.7-3.3-1.9-4.5c-1.2-1.2-2.8-1.9-4.5-1.9H72.9z"/>
</g>
<circle class="st2" cx="158.6" cy="38.1" r="35.7"/>
<rect x="144.4" y="64.1" class="st6" width="2" height="2"/>
<path class="st0" d="M146.3,66.1v-0.4V66.1h0.4H146.3z M144.7,64.5h1.2v1.3h-1.2V64.5z M144,63.8v2.7h2.7c0-0.2,0-2.5,0-2.7H144z"/>
<rect x="39" y="64.1" class="st6" width="2" height="2"/>
<path class="st0" d="M41,66.1v-0.4V66.1h0.4H41z M39.4,64.5h1.2v1.3h-1.2V64.5z M38.7,63.8v2.7h2.7c0-0.2,0-2.5,0-2.7H38.7z"/>
<rect x="37.3" y="62.4" class="st6" width="5.5" height="5.5"/>
<circle class="st4" cx="159.6" cy="37.6" r="31.4"/>
<g>
	<polygon class="st0" points="146.6,27.8 133.7,18.3 137.5,14.5 155,27.8 	"/>
	<path class="st0" d="M158.6,70.6c-17.9,0-32.4-14.6-32.4-32.4c0-17.9,14.6-32.4,32.4-32.4S191,20.2,191,38.1
		C191,56,176.5,70.6,158.6,70.6z M158.6,7.7c-16.8,0-30.4,13.7-30.4,30.5s13.7,30.4,30.4,30.4S189,54.9,189,38.1
		S175.4,7.7,158.6,7.7z"/>
	<g>
		<path class="st0" d="M136.1,33.6c0-0.8,0.6-1.4,1.4-1.4h7.1c0.7,0,1.3,0.6,1.3,1.3s-0.6,1.3-1.3,1.3h-5.7v2.7h4.9
			c0.7,0,1.3,0.6,1.3,1.3s-0.6,1.3-1.3,1.3h-4.9v3.6c0,0.8-0.6,1.4-1.4,1.4c-0.8,0-1.4-0.6-1.4-1.4V33.6z"/>
		<path class="st0" d="M148.1,43.4v-9.8c0-0.8,0.6-1.4,1.4-1.4h7c0.7,0,1.2,0.6,1.2,1.2s-0.6,1.2-1.2,1.2h-5.6v2.6h4.8
			c0.7,0,1.2,0.6,1.2,1.2s-0.6,1.2-1.2,1.2h-4.8v2.6h5.7c0.7,0,1.2,0.6,1.2,1.2c0,0.7-0.6,1.2-1.2,1.2h-7.1
			C148.7,44.8,148.1,44.2,148.1,43.4z"/>
		<path class="st0" d="M160.3,43.4v-9.8c0-0.8,0.6-1.4,1.4-1.4h7c0.7,0,1.2,0.6,1.2,1.2s-0.6,1.2-1.2,1.2h-5.6v2.6h4.8
			c0.7,0,1.2,0.6,1.2,1.2s-0.6,1.2-1.2,1.2h-4.8v2.6h5.7c0.7,0,1.2,0.6,1.2,1.2c0,0.7-0.6,1.2-1.2,1.2h-7.1
			C161,44.8,160.3,44.2,160.3,43.4z"/>
		<path class="st0" d="M172.3,43.5c-0.3-0.2-0.5-0.6-0.5-1c0-0.7,0.6-1.3,1.3-1.3c0.4,0,0.6,0.1,0.8,0.3c1,0.7,2,1.1,3.2,1.1
			c1.1,0,1.8-0.5,1.8-1.2v0c0-0.7-0.4-1.1-2.5-1.6c-2.5-0.6-4.2-1.4-4.2-3.9v0c0-2.3,1.8-3.8,4.4-3.8c1.5,0,2.9,0.4,4,1.1
			c0.3,0.2,0.6,0.6,0.6,1.1c0,0.7-0.6,1.3-1.3,1.3c-0.3,0-0.5-0.1-0.7-0.2c-0.9-0.5-1.8-0.8-2.6-0.8c-1.1,0-1.6,0.5-1.6,1.1v0
			c0,0.8,0.5,1.1,2.7,1.7c2.6,0.7,4,1.6,4,3.8v0c0,2.5-1.9,3.9-4.6,3.9C175.4,45,173.7,44.5,172.3,43.5z"/>
	</g>
</g>
<polygon class="st0" points="174.6,48.4 185,56.1 181.7,60.1 166.2,48.4 "/>
</svg>
