<?xml version="1.0" encoding="utf-8"?>
<!-- Generator: Adobe Illustrator 25.2.1, SVG Export Plug-In . SVG Version: 6.00 Build 0)  -->
<svg version="1.1" id="Layer_5" xmlns="http://www.w3.org/2000/svg" xmlns:xlink="http://www.w3.org/1999/xlink" x="0px" y="0px"
	 viewBox="0 0 200 200" style="enable-background:new 0 0 200 200;" xml:space="preserve">
<style type="text/css">
	.st0{fill:#00A3E0;}
	.st1{fill:#EBF6FA;}
	.st2{fill:#FFFFFF;}
	.st3{fill:#10A1DC;}
	.st4{fill:#D0E7F7;}
	.st5{fill:#D1E8F7;}
	.st6{fill:#0FA1DB;}
	.st7{fill:#CFE7F7;}
	.st8{fill-rule:evenodd;clip-rule:evenodd;fill:#00A3E0;stroke:#D0E7F7;stroke-width:2;stroke-miterlimit:10;}
	.st9{fill-rule:evenodd;clip-rule:evenodd;fill:#00A3E0;stroke:#00A3E0;stroke-width:2;stroke-miterlimit:10;}
	.st10{fill-rule:evenodd;clip-rule:evenodd;fill:#D0E7F7;}
	.st11{fill:none;}
	.st12{fill:#CFE7F7;stroke:#10A1DC;stroke-width:2.16;stroke-miterlimit:10;}
	.st13{fill:#B9D9EB;}
	.st14{fill:#C6E1F5;}
	.st15{fill:#CEE6F6;}
	.st16{fill:#CFE6F4;}
	.st17{fill:#2DA2D8;}
	.st18{clip-path:url(#SVGID_2_);}
	.st19{clip-path:url(#SVGID_4_);}
	.st20{fill:#CFE6F2;}
	.st21{clip-path:url(#SVGID_6_);}
	.st22{clip-path:url(#SVGID_8_);}
	.st23{fill:#19A0DB;}
	.st24{fill:#00A3E0;stroke:#1AA1DC;stroke-miterlimit:10;}
	.st25{fill:#00A3E0;stroke:#14A2DC;stroke-miterlimit:10;}
	.st26{fill:#CFE5F1;}
	.st27{fill:none;stroke:#00A3E0;stroke-width:2;stroke-linecap:round;stroke-linejoin:round;stroke-miterlimit:10;}
	.st28{fill:none;stroke:#10A1DC;stroke-width:3;stroke-miterlimit:10;stroke-dasharray:9.1453,9.1453;}
	.st29{fill:#CFE7F1;}
	.st30{fill:#744424;}
	.st31{fill:#2A190A;}
	.st32{fill:#DDDDDD;}
	.st33{fill:#93934E;}
	.st34{fill:#7A7940;}
	.st35{fill:#9A5A30;}
	.st36{fill:#CC6633;}
	.st37{fill:#56442E;}
	.st38{fill:#473926;}
	.st39{fill:#B2043A;}
	.st40{fill:#990A3D;}
	.st41{fill:#D6855C;}
	.st42{fill:#FFB699;}
	.st43{fill:#684513;}
	.st44{fill:#51340E;}
	.st45{fill:#3F8927;}
	.st46{fill:#438E2B;}
	.st47{fill:#479E2E;}
	.st48{fill:#FFCAB3;}
	.st49{fill:none;stroke:#00A3E0;stroke-width:4.5;stroke-linecap:round;stroke-linejoin:round;stroke-miterlimit:10;}
	.st50{fill:#229FD9;}
	.st51{clip-path:url(#SVGID_10_);}
	.st52{opacity:0.59;}
	.st53{fill:#2EA2D6;}
	.st54{clip-path:url(#SVGID_12_);fill:#CFE6F2;}
	.st55{clip-path:url(#SVGID_14_);}
	.st56{clip-path:url(#SVGID_16_);fill:#CFE6F2;}
	.st57{clip-path:url(#SVGID_18_);fill:#CFE6F2;}
	.st58{clip-path:url(#SVGID_20_);fill:#CFE6F2;}
	.st59{clip-path:url(#SVGID_22_);fill:#FFFFFF;}
	.st60{clip-path:url(#SVGID_24_);fill:#FFFFFF;}
	.st61{clip-path:url(#SVGID_10_);fill:#CFE6F2;}
	.st62{clip-path:url(#SVGID_10_);fill:#FFFFFF;}
	.st63{fill:#CEE6F7;}
	.st64{fill:#16A1DC;}
	.st65{fill:none;stroke:#3E3E44;stroke-width:2;stroke-linecap:round;stroke-miterlimit:10;}
	.st66{fill:#10A1DC;stroke:#10A1DC;stroke-width:2;stroke-miterlimit:10;}
	.st67{clip-path:url(#SVGID_26_);}
	.st68{fill:#CFE7F1;stroke:#10A1DC;stroke-miterlimit:10;}
	.st69{fill:#10A1DC;stroke:#10A1DC;stroke-miterlimit:10;}
	.st70{clip-path:url(#SVGID_28_);fill:#10A1DC;}
	.st71{clip-path:url(#SVGID_30_);fill:#10A1DC;}
	.st72{fill:none;stroke:#10A1DC;stroke-linecap:round;stroke-miterlimit:10;}
	.st73{fill-rule:evenodd;clip-rule:evenodd;fill:#CFE7F7;}
	.st74{fill-rule:evenodd;clip-rule:evenodd;fill:#10A1DC;stroke:#10A1DC;stroke-miterlimit:10;}
	.st75{fill-rule:evenodd;clip-rule:evenodd;fill:#FFFFFF;}
</style>
<path class="st4" d="M104.6,40.1c21.9,0,39.7,17.8,39.7,39.7c0,21.9-17.8,39.7-39.7,39.7s-39.7-17.8-39.7-39.7
	C64.9,57.9,82.7,40.1,104.6,40.1"/>
<g>
	<path class="st3" d="M145.8,96.2c-0.3,0-0.5-0.1-0.8-0.2c-0.8-0.3-1.3-1.1-1.3-1.9V74.9c0-0.5,0.2-1.1,0.6-1.4l3.4-3.4
		c0.5-0.5,1-0.9,1.6-1.3c3.4-2.3,7.9-2.3,11.3,0c0.6,0.4,1.1,0.8,1.6,1.3c0,0,0,0,0,0c2.4,2.4,3.5,5.9,2.8,9.2
		c-0.4,2-1.4,3.9-2.8,5.3l-5.2,5.2c-0.4,0.4-1,0.6-1.6,0.6c-1.8-0.1-3.6,0.5-4.9,1.8l-3.4,3.4C146.9,96,146.4,96.2,145.8,96.2z
		 M147.9,75.7v13.5c1.9-1.9,4.4-2.9,7-2.9l4.5-4.6c0.9-0.9,1.5-2,1.7-3.2c0.4-2-0.2-4.1-1.7-5.6c-0.3-0.3-0.6-0.6-1-0.8
		c-2-1.3-4.8-1.3-6.9,0c-0.3,0.2-0.7,0.5-1,0.8L147.9,75.7z"/>
	<path class="st3" d="M145.8,115.4c-0.3,0-0.5-0.1-0.8-0.2c-0.8-0.3-1.3-1.1-1.3-1.9V94.1c0-0.5,0.2-1.1,0.6-1.4l3.4-3.4
		c4-4,10.5-4,14.5,0h0c0,0,0,0,0,0l0,0c1.9,1.9,3,4.5,3,7.3s-1.1,5.3-3,7.3l-5.2,5.2c-0.4,0.4-1,0.6-1.6,0.6
		c-1.8-0.1-3.6,0.5-4.9,1.8l-3.4,3.4C146.9,115.2,146.4,115.4,145.8,115.4z M147.9,95v13.5c1.9-1.8,4.4-2.9,7-2.9l4.6-4.6
		c1.2-1.2,1.8-2.7,1.8-4.4c0-1.7-0.6-3.2-1.8-4.4c0,0,0,0,0,0c-2.4-2.4-6.4-2.4-8.8,0L147.9,95z"/>
	<g>
		<path class="st3" d="M145.8,76.9c-0.3,0-0.5-0.1-0.8-0.2c-0.8-0.3-1.3-1.1-1.3-1.9V55.6c0-0.5,0.2-1.1,0.6-1.4l3.4-3.4
			c4-4,10.5-4,14.5,0c4,4,4,10.5,0,14.5l-5.4,5.2c-0.4,0.4-1,0.6-1.5,0.6c-1.8-0.1-3.5,0.6-4.7,1.8l-3.4,3.4
			C146.9,76.7,146.4,76.9,145.8,76.9z M147.9,56.5V70c1.8-1.8,4.3-2.8,6.8-2.9l4.8-4.6c2.4-2.4,2.4-6.4,0-8.8
			c-2.4-2.4-6.4-2.4-8.8,0L147.9,56.5z"/>
		<path class="st3" d="M108.7,171.9c-0.2,0-0.4,0-0.5-0.1L55,157.6c-0.7-0.2-1.3-0.8-1.4-1.5c-1.1-4.4-4.2-10.8-7.5-17.7
			c-5.3-11-11.3-23.4-11.3-32.2c0-6.7,2.6-13.8,5.1-20.6c2.7-7.3,5.4-14.8,4.9-21.8c-0.5-7.5,1.6-14.5,5.6-18.8
			c2.4-2.5,5.1-3.9,8-3.9c0.7,0,1.3,0.1,1.9,0.4c0.3,0.1,0.6,0.3,0.7,0.4l0.1,0.1c0.2,0.1,0.5,0.3,0.8,0.6c0.2,0.2,0.4,0.5,0.5,0.7
			l0.2,0.2c0.1,0.1,0.3,0.3,0.4,0.6c0.1,0.2,0.3,0.5,0.4,0.8l0.2,0.3c0.1,0.2,0.2,0.4,0.3,0.6c0.1,0.3,0.2,0.6,0.3,0.9l0.1,0.4
			c0.1,0.2,0.1,0.4,0.2,0.6c0.1,0.5,0.2,1,0.3,1.5l0,0.2c0,0.1,0.1,0.3,0.1,0.4c0.1,0.5,0.2,1.1,0.2,1.7l0,0.2c0,0.1,0,0.3,0.1,0.4
			c0.1,0.5,0.1,1.1,0.2,1.7l0,0.3c0,0.1,0,0.3,0,0.4c0,0.1,0,0.1,0,0.2V133c0,4.9,4,9,9,9h60.5c0.1,0,0.2,0,0.2,0l0.2,0
			c0.9,0,1.6,0.5,2,1.2c0.3,0.8,0.1,1.7-0.5,2.3l-0.1,0.1c-1.2,1.1-2.4,2.1-3.5,3.2l-0.5,0.4c-1.2,1.1-2.3,2.1-3.5,3.2l-0.5,0.4
			c-1.2,1.1-2.3,2.2-3.5,3.2l-0.2,0.2c-1.1,1.1-2.2,2.1-3.3,3.2l-0.2,0.2c-1.1,1-2.1,2-3.1,3l-0.4,0.4c-1,0.9-1.8,1.8-2.7,2.7
			l-0.4,0.4c-0.9,0.9-1.6,1.7-2.4,2.5c0,0,0,0,0,0l-0.3,0.3c-0.9,0.9-1.5,1.7-2,2.3C109.8,171.6,109.2,171.9,108.7,171.9z M57.2,154
			l50.8,13.6c0.4-0.4,0.8-0.9,1.3-1.4l0.3-0.3c0.7-0.8,1.6-1.7,2.4-2.5l0.4-0.5c0.9-0.9,1.8-1.8,2.7-2.7l0.5-0.4c1-1,2-2,3.1-3
			l0.2-0.2c1.1-1.1,2.2-2.1,3.4-3.2l0.2-0.2c1.1-1.1,2.3-2.2,3.5-3.3l0.4-0.4c1.2-1.1,2.3-2.1,3.5-3.2l0.2-0.2H74.3
			c-7.2,0-13-5.8-13-13V54.7c0-0.1,0-0.2,0-0.2l0-0.4c0-0.5-0.1-1.1-0.1-1.6c0-0.1,0-0.2,0-0.2l0-0.3c-0.1-0.5-0.1-1-0.2-1.5
			c0-0.1,0-0.1,0-0.2c0-0.1,0-0.2-0.1-0.3c-0.1-0.5-0.2-0.9-0.3-1.3c0-0.1-0.1-0.2-0.1-0.3c0-0.1-0.1-0.2-0.1-0.3l-0.1-0.3
			c-0.1-0.2-0.1-0.4-0.2-0.6c0-0.1-0.1-0.1-0.1-0.2c0-0.1-0.1-0.2-0.1-0.3l-0.1-0.3c-0.1-0.1-0.1-0.2-0.2-0.3l0,0
			c-0.1-0.1-0.1-0.2-0.2-0.3c0-0.1-0.1-0.1-0.2-0.2c0,0,0-0.1-0.1-0.1l0,0c-0.1,0-0.1-0.1-0.2-0.1c-0.1,0-0.1-0.1-0.2-0.1
			c-0.1,0-0.1,0-0.2,0c-2.2,0-4,1.4-5.1,2.6c-3.2,3.4-5,9.5-4.6,15.8c0.5,7.8-2.4,15.7-5.2,23.4c-2.5,6.8-4.8,13.2-4.8,19.3
			c0,7.9,5.8,19.9,10.9,30.4C52.8,143.1,55.8,149.3,57.2,154z M111,167.2L111,167.2L111,167.2z"/>
		<path class="st3" d="M145.7,136.9c-0.3,0-0.7-0.1-1-0.3c-0.7-0.4-1.1-1.3-1-2.1c0.1-0.5,0.1-1,0.1-1.5v-19.6
			c0-0.5,0.2-1.1,0.6-1.4l3.4-3.4l0,0c4-4,10.5-4,14.5,0c4,4,4,10.5,0,14.5c0,0-0.1,0.1-0.1,0.1l-6.6,5.6c0,0-0.1,0.1-0.1,0.1
			c-0.7,0.6-1.5,1.3-2.3,2l-0.4,0.3c-0.8,0.7-1.7,1.4-2.5,2.2l-0.5,0.4c-0.9,0.8-1.8,1.6-2.8,2.5c0,0-0.1,0.1-0.1,0.1
			C146.6,136.7,146.1,136.9,145.7,136.9z M147.9,114.2v16c0.8-0.7,1.6-1.4,2.4-2.1l0.4-0.3c0.8-0.7,1.6-1.4,2.3-2l6.6-5.7
			c1.1-1.2,1.8-2.7,1.8-4.3c0-1.7-0.6-3.2-1.8-4.4c-2.4-2.4-6.4-2.4-8.8,0L147.9,114.2z"/>
	</g>
	<path class="st3" d="M109.3,194.6c-0.7,0-1.3-0.1-1.9-0.3l-63.8-17.1c-1.9-0.5-3.6-1.8-4.6-3.5s-1.3-3.8-0.8-5.7l2.8-10.6
		c0.5-1.9,1.8-3.6,3.5-4.6c1.7-1,3.8-1.3,5.7-0.8l63.8,17.1l0,0c1.9,0.5,3.6,1.8,4.6,3.5c1,1.7,1.3,3.8,0.8,5.7l-2.8,10.6
		c-0.5,1.9-1.8,3.6-3.5,4.6C111.9,194.3,110.6,194.6,109.3,194.6z M48.4,155.9c-0.6,0-1.2,0.2-1.7,0.5c-0.8,0.5-1.4,1.2-1.6,2.1
		l-2.8,10.6c-0.2,0.9-0.1,1.8,0.4,2.6c0.5,0.8,1.2,1.4,2.1,1.6l63.8,17.1c0.9,0.2,1.8,0.1,2.6-0.4c0.8-0.5,1.4-1.2,1.6-2.1l2.8-10.6
		c0.2-0.9,0.1-1.8-0.4-2.6c-0.5-0.8-1.2-1.4-2.1-1.6L49.3,156C49,156,48.7,155.9,48.4,155.9z"/>
</g>
<g>
	<g>
		<path class="st3" d="M104.5,85.4l-1.2,0l0-1.2c-0.2-5.4-4.8-9.6-10.5-9.6l-1.2,0l-0.1-1.3c0-0.1,0-0.2,0-0.4
			c0-6.9,5.8-12.5,13-12.5c7.2,0,13,5.6,13,12.5c0,0.1,0,0.3,0,0.4l-0.1,1.3l-1.2,0c-5.6,0-10.2,4.2-10.5,9.6l0,0.7l-0.9,0.5
			L104.5,85.4z M94,72.2c4.7,0.4,8.6,3.2,10.5,7.1c1.9-3.9,5.8-6.7,10.5-7.1c-0.4-5.2-4.9-9.3-10.5-9.3C99,62.9,94.4,67,94,72.2z"/>
		<path class="st3" d="M92.8,97.1c-7.1,0-13-5.6-13-12.5c0-6.9,5.8-12.5,13-12.5h1.2l0.1,1.2c0.2,5.4,4.8,9.6,10.5,9.6l1.2,0
			l0.1,1.3c0,0.1,0,0.2,0,0.4C105.7,91.5,99.9,97.1,92.8,97.1z M91.7,74.6c-5.3,0.5-9.4,4.8-9.4,10c0,5.5,4.7,10,10.5,10
			c5.5,0,10.1-4.1,10.5-9.3C97.3,84.8,92.5,80.4,91.7,74.6z"/>
		<path class="st3" d="M104.5,85.4l-0.3,0l0.2-0.7h-1.1c0-0.1,0-0.1,0-0.2l-0.1-1.5h1.2l1.4-0.3l-0.1,1.8c0,0.1,0,0.1,0,0.2h-1.1
			l0.2,0.7L104.5,85.4z"/>
		<path class="st3" d="M116.2,97.1c-7.2,0-13-5.6-13-12.5c0-0.1,0-0.2,0-0.4l0.1-1.3l1.2,0c5.6,0,10.2-4.2,10.5-9.6l0-1.2h1.2
			c7.2,0,13,5.6,13,12.5C129.2,91.5,123.4,97.1,116.2,97.1z M105.8,85.3c0.4,5.2,4.9,9.3,10.5,9.3c5.8,0,10.5-4.5,10.5-10
			c0-5.2-4.1-9.5-9.4-10C116.5,80.4,111.7,84.8,105.8,85.3z"/>
		<path class="st3" d="M103.2,85.4l0.1-1.3c0.3-6.7,5.9-12,12.9-12l1.3,0l-0.1,1.3c-0.3,6.7-5.9,12-12.9,12L103.2,85.4z M114.8,74.7
			c-4.5,0.6-8.1,3.9-8.9,8.2C110.4,82.3,114,79,114.8,74.7z"/>
		<path class="st3" d="M105.8,85.4l-1.3,0c-7,0-12.6-5.3-12.9-12l-0.1-1.3l1.3,0c7,0,12.6,5.3,12.9,12L105.8,85.4z M94.2,74.7
			c0.8,4.3,4.4,7.6,8.9,8.2C102.3,78.6,98.7,75.2,94.2,74.7z"/>
	</g>
</g>
<path class="st3" d="M72.2,11.1c-3.6,0-6.5,2.9-6.5,6.5v117.1c0,3.6,2.9,6.5,6.5,6.5h65c3.6,0,6.5-2.9,6.5-6.5V17.7
	c0-3.6-2.9-6.5-6.5-6.5H72.2z M137.2,145.6h-65c-6,0-10.8-4.9-10.8-10.8V17.7c0-6,4.9-10.8,10.8-10.8h65c6,0,10.8,4.9,10.8,10.8
	v117.1C148.1,140.7,143.2,145.6,137.2,145.6"/>
<path class="st3" d="M109.1,19.8H91.7c-1.2,0-2.2-1-2.2-2.2c0-1.2,1-2.2,2.2-2.2h17.3c1.2,0,2.2,1,2.2,2.2
	C111.2,18.9,110.3,19.8,109.1,19.8"/>
<path class="st3" d="M117.8,19.8h-2.2c-1.2,0-2.2-1-2.2-2.2c0-1.2,1-2.2,2.2-2.2h2.2c1.2,0,2.2,1,2.2,2.2
	C119.9,18.9,119,19.8,117.8,19.8"/>
<path class="st3" d="M118.7,134H90.8c-0.5,0-1,0.4-1,0.9v0.3c0,0.5,0.4,0.9,1,0.9h27.9c0.5,0,1-0.4,1-0.9v-0.3
	C119.7,134.4,119.2,134,118.7,134z"/>
</svg>
