<?xml version="1.0" encoding="utf-8"?>
<!-- Generator: Adobe Illustrator 25.2.1, SVG Export Plug-In . SVG Version: 6.00 Build 0)  -->
<svg version="1.1" id="Layer_5" xmlns="http://www.w3.org/2000/svg" xmlns:xlink="http://www.w3.org/1999/xlink" x="0px" y="0px"
	 viewBox="0 0 200 200" style="enable-background:new 0 0 200 200;" xml:space="preserve">
<style type="text/css">
	.st0{fill:#00A3E0;}
	.st1{fill:#EBF6FA;}
	.st2{fill:#FFFFFF;}
	.st3{fill:#10A1DC;}
	.st4{fill:#D0E7F7;}
	.st5{fill:#D1E8F7;}
	.st6{fill:#0FA1DB;}
	.st7{fill:#CFE7F7;}
	.st8{fill-rule:evenodd;clip-rule:evenodd;fill:#00A3E0;stroke:#D0E7F7;stroke-width:2;stroke-miterlimit:10;}
	.st9{fill-rule:evenodd;clip-rule:evenodd;fill:#00A3E0;stroke:#00A3E0;stroke-width:2;stroke-miterlimit:10;}
	.st10{fill-rule:evenodd;clip-rule:evenodd;fill:#D0E7F7;}
	.st11{fill:none;}
	.st12{fill:#CFE7F7;stroke:#10A1DC;stroke-width:2.16;stroke-miterlimit:10;}
	.st13{fill:#B9D9EB;}
	.st14{fill:#C6E1F5;}
	.st15{fill:#CEE6F6;}
	.st16{fill:#CFE6F4;}
	.st17{fill:#2DA2D8;}
	.st18{clip-path:url(#SVGID_2_);}
	.st19{clip-path:url(#SVGID_4_);}
	.st20{fill:#CFE6F2;}
	.st21{clip-path:url(#SVGID_6_);}
	.st22{clip-path:url(#SVGID_8_);}
	.st23{fill:#19A0DB;}
	.st24{fill:#00A3E0;stroke:#1AA1DC;stroke-miterlimit:10;}
	.st25{fill:#00A3E0;stroke:#14A2DC;stroke-miterlimit:10;}
	.st26{fill:#CFE5F1;}
	.st27{fill:none;stroke:#00A3E0;stroke-width:2;stroke-linecap:round;stroke-linejoin:round;stroke-miterlimit:10;}
	.st28{fill:none;stroke:#10A1DC;stroke-width:3;stroke-miterlimit:10;stroke-dasharray:9.1453,9.1453;}
	.st29{fill:#CFE7F1;}
	.st30{fill:#744424;}
	.st31{fill:#2A190A;}
	.st32{fill:#DDDDDD;}
	.st33{fill:#93934E;}
	.st34{fill:#7A7940;}
	.st35{fill:#9A5A30;}
	.st36{fill:#CC6633;}
	.st37{fill:#56442E;}
	.st38{fill:#473926;}
	.st39{fill:#B2043A;}
	.st40{fill:#990A3D;}
	.st41{fill:#D6855C;}
	.st42{fill:#FFB699;}
	.st43{fill:#684513;}
	.st44{fill:#51340E;}
	.st45{fill:#3F8927;}
	.st46{fill:#438E2B;}
	.st47{fill:#479E2E;}
	.st48{fill:#FFCAB3;}
	.st49{fill:none;stroke:#00A3E0;stroke-width:4.5;stroke-linecap:round;stroke-linejoin:round;stroke-miterlimit:10;}
	.st50{fill:#229FD9;}
	.st51{clip-path:url(#SVGID_10_);}
	.st52{opacity:0.59;}
	.st53{fill:#2EA2D6;}
	.st54{clip-path:url(#SVGID_12_);fill:#CFE6F2;}
	.st55{clip-path:url(#SVGID_14_);}
	.st56{clip-path:url(#SVGID_16_);fill:#CFE6F2;}
	.st57{clip-path:url(#SVGID_18_);fill:#CFE6F2;}
	.st58{clip-path:url(#SVGID_20_);fill:#CFE6F2;}
	.st59{clip-path:url(#SVGID_22_);fill:#FFFFFF;}
	.st60{clip-path:url(#SVGID_24_);fill:#FFFFFF;}
	.st61{clip-path:url(#SVGID_10_);fill:#CFE6F2;}
	.st62{clip-path:url(#SVGID_10_);fill:#FFFFFF;}
	.st63{fill:#CEE6F7;}
	.st64{fill:#16A1DC;}
	.st65{fill:none;stroke:#3E3E44;stroke-width:2;stroke-linecap:round;stroke-miterlimit:10;}
	.st66{fill:#10A1DC;stroke:#10A1DC;stroke-width:2;stroke-miterlimit:10;}
	.st67{clip-path:url(#SVGID_26_);}
	.st68{fill:#CFE7F1;stroke:#10A1DC;stroke-miterlimit:10;}
	.st69{fill:#10A1DC;stroke:#10A1DC;stroke-miterlimit:10;}
	.st70{clip-path:url(#SVGID_28_);fill:#10A1DC;}
	.st71{clip-path:url(#SVGID_30_);fill:#10A1DC;}
	.st72{fill:none;stroke:#10A1DC;stroke-linecap:round;stroke-miterlimit:10;}
	.st73{fill-rule:evenodd;clip-rule:evenodd;fill:#CFE7F7;}
	.st74{fill-rule:evenodd;clip-rule:evenodd;fill:#10A1DC;stroke:#10A1DC;stroke-miterlimit:10;}
	.st75{fill-rule:evenodd;clip-rule:evenodd;fill:#FFFFFF;}
</style>
<path class="st4" d="M93.9,112.1c0,24.9-20.2,45-45,45c-24.9,0-45-20.2-45-45c0-24.9,20.2-45,45-45C73.8,67.1,93.9,87.3,93.9,112.1"
	/>
<path class="st0" d="M148.3,147.9c-1.1,0-2.2-0.6-2.7-1.7c-0.7-1.5,0-3.3,1.5-4c1-0.4,1.9-0.9,2.8-1.5c1.4-0.8,3.3-0.3,4.1,1.1
	c0.8,1.4,0.3,3.3-1.1,4.1c-1.1,0.6-2.2,1.2-3.3,1.7C149.1,147.8,148.7,147.9,148.3,147.9"/>
<path class="st0" d="M158.2,141.1c-0.8,0-1.6-0.3-2.2-0.9c-1.1-1.2-1.1-3.1,0.1-4.2c3-2.9,5.4-6.3,7.2-10.1c0.7-1.5,2.5-2.2,4-1.5
	c1.5,0.7,2.2,2.5,1.5,4c-2.1,4.5-4.9,8.5-8.5,11.9C159.7,140.8,158.9,141.1,158.2,141.1"/>
<path class="st0" d="M57.9,97.1c-1.7,0-3-1.3-3-3c0-3.3-2.7-6-6-6c-3.3,0-6,2.7-6,6c0,1.7-1.3,3-3,3c-1.7,0-3-1.3-3-3
	c0-6.6,5.4-12,12-12c6.6,0,12,5.4,12,12C60.9,95.8,59.6,97.1,57.9,97.1"/>
<path class="st0" d="M187,115.1h-6.4c-1.5,0-2.8,1.1-3,2.6c-2.8,22.5-22,39.4-44.6,39.4h-66c-18.4,0-34.8-11-41.7-28.1
	c-0.5-1.1-1.6-1.9-2.8-1.9h-3.5c-5,0-9-4-9-9v-12c0-5,4-9,9-9h3.5c1.2,0,2.3-0.7,2.8-1.9C30,83.3,39.9,74,51.9,69.8v3.3
	c0,1.7,1.3,3,3,3c1.7,0,3-1.3,3-3v-7.4c0,0,0,0,0,0V43.3c10.2,1.5,18,10.2,18,20.8c0,0,0,0,0,0v9c0,1.7,1.3,3,3,3c1.7,0,3-1.3,3-3
	v-6h6.8c0.5,2.1,1.4,4.1,2.4,6h-0.2c-1.7,0-3,1.3-3,3c0,1.7,1.3,3,3,3h6.3c0,0,0,0,0,0c0,0,0,0,0,0h35.7c1.7,0,3-1.3,3-3
	c0-1.7-1.3-3-3-3h-0.2c1.1-1.9,1.9-3.8,2.4-5.9c21.7,1.1,39.7,17.6,42.4,39.3c0.2,1.5,1.5,2.6,3,2.6h6.4c1.7,0,3,1.3,3,3
	C190,113.8,188.6,115.1,187,115.1 M132.9,169.2c0,3.3-2.7,6-6,6c-3.3,0-6-2.7-6-6v-6h12V169.2z M75.9,169.2c0,3.3-2.7,6-6,6
	c-3.3,0-6-2.7-6-6v-6.1c1,0.1,2,0.1,3,0.1h9V169.2z M111.9,43.1c9.9,0,18,8.1,18,18c0,4.5-1.6,8.7-4.6,12H98.5
	c-3-3.3-4.6-7.5-4.6-12C93.9,51.2,102,43.1,111.9,43.1 M187,103.1h-3.8C179,80,159.4,62.6,135.9,61.2c0,0,0-0.1,0-0.1
	c0-13.2-10.8-24-24-24c-13.2,0-24,10.8-24,24h-6.2c-1.5-13.5-13-24-26.8-24c-1.7,0-3,1.3-3,3v23.3C38,67.7,26.4,77.8,20.4,91.1h-1.5
	c-8.3,0-15,6.7-15,15v12c0,8.3,6.7,15,15,15h1.5c7,15.5,21,26.3,37.5,29.2v6.8c0,6.6,5.4,12,12,12c6.6,0,12-5.4,12-12v-6h33v6
	c0,6.6,5.4,12,12,12c6.6,0,12-5.4,12-12v-6.4c22.1-2.6,40.2-19.5,44.2-41.6h3.8c5,0,9-4,9-9C196,107.2,191.9,103.1,187,103.1"/>
</svg>
